<svg width="18" height="19" viewBox="0 0 18 19" fill="none" xmlns="http://www.w3.org/2000/svg">
<path d="M1.05347 10.5958H3.05032C3.05032 10.5958 3.57645 10.5958 3.57645 9.96419V6.86945C3.57645 6.86945 3.57645 6.23787 4.10259 6.23787H5.20991C5.20991 6.23787 5.73604 6.23787 5.73604 5.60629V1.26293C5.73604 1.26293 5.73604 0.631348 6.26217 0.631348H11.3193C11.3193 0.631348 11.8455 0.631348 11.8455 1.26293V5.60629C11.8455 5.60629 11.8455 6.23787 12.3716 6.23787H13.5729C13.5729 6.23787 14.0991 6.23787 14.0991 6.86945V10.0273C14.0991 10.0273 14.1593 10.5958 14.6854 10.5958H16.949C16.949 10.5958 17.4751 10.6589 17.4751 11.2905V16.9747C17.4751 16.9747 17.4751 17.5431 16.949 17.5431H11.8455C11.8455 17.5431 11.3656 17.6063 11.3656 16.9747V13.8168C11.3656 13.8168 11.3656 13.1852 10.8395 13.1852H7.16291C7.16291 13.1852 6.63678 13.1852 6.63678 13.8168V16.9116C6.63678 16.9116 6.63678 17.5431 6.11065 17.5431H1.05347C1.05347 17.5431 0.527344 17.5431 0.527344 16.9116V11.2273C0.527344 11.2273 0.527344 10.5958 1.05347 10.5958Z" fill="#0033FF"/>
</svg>
