<svg width="58" height="17" viewBox="0 0 58 17" fill="none" xmlns="http://www.w3.org/2000/svg">
<path d="M0.528821 10.0154H2.53588C2.53588 10.0154 3.0647 10.0154 3.0647 9.38055V6.26999C3.0647 6.26999 3.0647 5.63518 3.59352 5.63518H4.7065C4.7065 5.63518 5.23533 5.63518 5.23533 5.00038V0.634807C5.23533 0.634807 5.23532 0 5.76415 0H10.8472C10.8472 0 11.376 0 11.376 0.634807V5.00038C11.376 5.00038 11.376 5.63518 11.9048 5.63518H13.1123C13.1123 5.63518 13.6411 5.63518 13.6411 6.26999V9.44403C13.6411 9.44403 13.7017 10.0154 14.2305 10.0154H16.5056C16.5056 10.0154 17.0344 10.0788 17.0344 10.7136V16.4269C17.0344 16.4269 17.0344 16.9982 16.5056 16.9982H11.376C11.376 16.9982 10.8937 17.0617 10.8937 16.4269V13.2529C10.8937 13.2529 10.8937 12.6181 10.3649 12.6181H6.66949C6.66949 12.6181 6.14067 12.6181 6.14067 13.2529V16.3634C6.14067 16.3634 6.14067 16.9982 5.61184 16.9982H0.528821C0.528821 16.9982 0 16.9982 0 16.3634V10.6502C0 10.6502 0 10.0154 0.528821 10.0154Z" fill="#0033FF"/>
<path d="M45.0195 17V0H50.7981C52.5967 0 53.9793 0.375117 54.9457 1.12535C55.9256 1.85962 56.4155 3.02488 56.4155 4.62113C56.4155 5.32347 56.2947 5.93005 56.0531 6.44084C55.8249 6.95164 55.4826 7.35868 55.0262 7.66197C54.5833 7.9493 54.033 8.13286 53.3752 8.21268C54.5699 8.32441 55.4759 8.73944 56.0934 9.45775C56.7108 10.1601 57.0195 11.1099 57.0195 12.307C57.0195 13.9033 56.5363 15.0845 55.5699 15.8507C54.6034 16.6169 53.2276 17 51.4423 17H45.0195ZM48.5229 13.7197H51.241C51.8987 13.7197 52.4356 13.5601 52.8517 13.2408C53.2813 12.9216 53.496 12.4347 53.496 11.7803C53.496 11.1099 53.288 10.615 52.8719 10.2958C52.4558 9.96056 51.9121 9.79296 51.241 9.79296H48.5229V13.7197ZM48.5229 6.91972H50.6772C51.335 6.91972 51.8652 6.76807 52.2679 6.46479C52.684 6.1615 52.892 5.70657 52.892 5.1C52.892 4.4615 52.6907 3.99859 52.288 3.71127C51.8853 3.42394 51.3484 3.28028 50.6772 3.28028H48.5229V6.91972Z" fill="white"/>
<path d="M38.3232 17C37.0354 17 35.9305 16.7633 35.0087 16.2898C34.1004 15.8163 33.3887 15.1518 32.8736 14.2965C32.372 13.4259 32.0873 12.4025 32.0195 11.2264L35.5577 11.0431C35.6255 11.6235 35.7746 12.1199 36.0051 12.5323C36.2355 12.9447 36.5406 13.2579 36.9201 13.4717C37.3133 13.6855 37.7945 13.7925 38.3639 13.7925C38.8248 13.7925 39.2111 13.7314 39.5229 13.6092C39.8483 13.487 40.0923 13.3037 40.255 13.0593C40.4312 12.8149 40.5193 12.5094 40.5193 12.1429C40.5193 11.8068 40.4448 11.5166 40.2956 11.2722C40.1601 11.0126 39.8822 10.7835 39.4619 10.5849C39.0552 10.3711 38.4384 10.1649 37.6115 9.96631C36.3372 9.66083 35.3069 9.30952 34.5207 8.9124C33.748 8.5 33.1786 7.98832 32.8126 7.37736C32.4601 6.75112 32.2839 5.95687 32.2839 4.99461C32.2839 4.0018 32.5076 3.13118 32.9549 2.38275C33.4023 1.63432 34.0462 1.05391 34.8867 0.64151C35.7272 0.213837 36.7303 0 37.8962 0C39.1434 0 40.1872 0.244385 41.0277 0.733154C41.8817 1.20665 42.546 1.86343 43.0205 2.7035C43.4949 3.54358 43.7796 4.51348 43.8745 5.61321L40.377 5.7965C40.3363 5.26191 40.2075 4.80368 39.9906 4.42183C39.7873 4.03998 39.5026 3.74214 39.1366 3.5283C38.7841 3.31447 38.3571 3.20755 37.8555 3.20755C37.2319 3.20755 36.7371 3.36029 36.3711 3.66577C36.0186 3.97125 35.8424 4.36837 35.8424 4.85714C35.8424 5.23899 35.9237 5.55211 36.0864 5.7965C36.2626 6.04088 36.5473 6.25472 36.9405 6.43801C37.3336 6.60602 37.8826 6.7664 38.5876 6.91914C39.9703 7.20934 41.0616 7.59119 41.8614 8.06469C42.6612 8.53818 43.2306 9.09569 43.5695 9.7372C43.9084 10.3787 44.0779 11.1195 44.0779 11.9596C44.0779 12.9982 43.8474 13.8994 43.3865 14.6631C42.9256 15.4115 42.2613 15.9919 41.3937 16.4043C40.5397 16.8014 39.5162 17 38.3232 17Z" fill="white"/>
<path d="M18.0195 17V0H21.8753L27.3534 10.6549V0H31.0195V17H27.1427L21.6857 6.8V17H18.0195Z" fill="white"/>
</svg>
