<svg width="39" height="40" viewBox="0 0 39 40" fill="none" xmlns="http://www.w3.org/2000/svg">
<path d="M2.2796 22.958H6.6061C6.6061 22.958 7.74605 22.958 7.74605 21.5896V14.8843C7.74605 14.8843 7.74605 13.5159 8.88601 13.5159H11.2852C11.2852 13.5159 12.4252 13.5159 12.4252 12.1475V2.73683C12.4252 2.73683 12.4252 1.36841 13.5651 1.36841H24.5223C24.5223 1.36841 25.6623 1.36841 25.6623 2.73683V12.1475C25.6623 12.1475 25.6623 13.5159 26.8022 13.5159H29.4051C29.4051 13.5159 30.5451 13.5159 30.5451 14.8843V21.7264C30.5451 21.7264 30.6756 22.958 31.8155 22.958H36.7198C36.7198 22.958 37.8597 23.0948 37.8597 24.4632V36.779C37.8597 36.779 37.8597 38.0106 36.7198 38.0106H25.6623C25.6623 38.0106 24.6226 38.1475 24.6226 36.779V29.9369C24.6226 29.9369 24.6226 28.5685 23.4827 28.5685H15.5167C15.5167 28.5685 14.3768 28.5685 14.3768 29.9369V36.6422C14.3768 36.6422 14.3768 38.0106 13.2368 38.0106H2.2796C2.2796 38.0106 1.13965 38.0106 1.13965 36.6422V24.3264C1.13965 24.3264 1.13965 22.958 2.2796 22.958Z" fill="white"/>
</svg>
